<svg width="16" height="16" viewBox="0 0 16 16" fill="none" xmlns="http://www.w3.org/2000/svg">
<path d="M15.0976 7.61112C15.1003 8.63769 14.8605 9.65036 14.3976 10.5667C13.8489 11.6647 13.0052 12.5882 11.9612 13.2339C10.9172 13.8795 9.71405 14.2217 8.48653 14.2222C7.45997 14.2249 6.44729 13.9851 5.53098 13.5222L1.09766 15L2.57543 10.5667C2.1126 9.65036 1.87276 8.63769 1.87543 7.61112C1.87591 6.3836 2.21813 5.18046 2.86377 4.13644C3.50941 3.09243 4.43296 2.24879 5.53098 1.70002C6.44729 1.23719 7.45997 0.997346 8.48653 1.00002H8.87542C10.4966 1.08946 12.0278 1.77372 13.1759 2.9218C14.3239 4.06987 15.0082 5.60108 15.0976 7.22223V7.61112Z" stroke="black" stroke-width="1.5" stroke-linecap="round" stroke-linejoin="round"/>
</svg>
