<svg width="17" height="17" viewBox="0 0 17 17" fill="none" xmlns="http://www.w3.org/2000/svg">
<path d="M2.125 4.25H3.54167H14.875" stroke="black" stroke-width="1.5" stroke-linecap="round" stroke-linejoin="round"/>
<path d="M5.66667 4.25001V2.83334C5.66667 2.45762 5.81593 2.09728 6.0816 1.8316C6.34728 1.56593 6.70762 1.41667 7.08334 1.41667H9.91667C10.2924 1.41667 10.6527 1.56593 10.9184 1.8316C11.1841 2.09728 11.3333 2.45762 11.3333 2.83334V4.25001M13.4583 4.25001V14.1667C13.4583 14.5424 13.3091 14.9027 13.0434 15.1684C12.7777 15.4341 12.4174 15.5833 12.0417 15.5833H4.95834C4.58262 15.5833 4.22228 15.4341 3.9566 15.1684C3.69093 14.9027 3.54167 14.5424 3.54167 14.1667V4.25001H13.4583Z" stroke="black" stroke-width="1.5" stroke-linecap="round" stroke-linejoin="round"/>
<path d="M7.08333 7.79167V12.0417" stroke="black" stroke-width="1.5" stroke-linecap="round" stroke-linejoin="round"/>
<path d="M9.91667 7.79167V12.0417" stroke="black" stroke-width="1.5" stroke-linecap="round" stroke-linejoin="round"/>
</svg>
