<svg width="17" height="17" viewBox="0 0 17 17" fill="none" xmlns="http://www.w3.org/2000/svg">
<path d="M7.79167 2.83333H2.83334C2.45761 2.83333 2.09728 2.98258 1.8316 3.24826C1.56593 3.51394 1.41667 3.87427 1.41667 4.24999V14.1667C1.41667 14.5424 1.56593 14.9027 1.8316 15.1684C2.09728 15.4341 2.45761 15.5833 2.83334 15.5833H12.75C13.1257 15.5833 13.4861 15.4341 13.7517 15.1684C14.0174 14.9027 14.1667 14.5424 14.1667 14.1667V9.20833" stroke="black" stroke-width="1.5" stroke-linecap="round" stroke-linejoin="round"/>
<path d="M13.1042 1.77084C13.386 1.48904 13.7682 1.33073 14.1667 1.33073C14.5652 1.33073 14.9474 1.48904 15.2292 1.77084C15.511 2.05263 15.6693 2.43482 15.6693 2.83334C15.6693 3.23185 15.511 3.61404 15.2292 3.89584L8.50001 10.625L5.66667 11.3333L6.37501 8.5L13.1042 1.77084Z" stroke="black" stroke-width="1.5" stroke-linecap="round" stroke-linejoin="round"/>
</svg>
