<svg width="24" height="24" viewBox="0 0 24 24" fill="none" xmlns="http://www.w3.org/2000/svg">
<path d="M11 4H4C3.46957 4 2.96086 4.21071 2.58579 4.58579C2.21071 4.96086 2 5.46957 2 6V20C2 20.5304 2.21071 21.0391 2.58579 21.4142C2.96086 21.7893 3.46957 22 4 22H18C18.5304 22 19.0391 21.7893 19.4142 21.4142C19.7893 21.0391 20 20.5304 20 20V13" stroke="#1F1F1F" stroke-width="2" stroke-linecap="round" stroke-linejoin="round"/>
<path d="M19.4356 2.43999C19.7173 2.15827 20.0994 2 20.4978 2C20.8962 2 21.2783 2.15827 21.56 2.43999C21.8417 2.72171 22 3.1038 22 3.50221C22 3.90062 21.8417 4.28272 21.56 4.56443L14.8326 11.2919L12 12L12.7081 9.1674L19.4356 2.43999Z" stroke="#1F1F1F" stroke-width="1.5" stroke-linecap="round" stroke-linejoin="round"/>
<path d="M5.5 15.5H16.5" stroke="#1F1F1F" stroke-linecap="round"/>
<path d="M5.5 18.5H16.5" stroke="#1F1F1F" stroke-linecap="round"/>
</svg>
