<svg width="16" height="15" viewBox="0 0 16 15" fill="none" xmlns="http://www.w3.org/2000/svg">
<path d="M13.8609 2.57455C13.5204 2.23389 13.1161 1.96365 12.6711 1.77927C12.2261 1.5949 11.7492 1.5 11.2675 1.5C10.7859 1.5 10.3089 1.5949 9.86396 1.77927C9.41899 1.96365 9.0147 2.23389 8.6742 2.57455L7.96753 3.28122L7.26086 2.57455C6.57307 1.88676 5.64022 1.50036 4.66753 1.50036C3.69484 1.50036 2.76199 1.88676 2.07419 2.57455C1.3864 3.26235 1 4.19519 1 5.16788C1 6.14057 1.3864 7.07342 2.07419 7.76122L2.78086 8.46788L7.96753 13.6546L13.1542 8.46788L13.8609 7.76122C14.2015 7.42071 14.4718 7.01643 14.6561 6.57145C14.8405 6.12648 14.9354 5.64954 14.9354 5.16788C14.9354 4.68623 14.8405 4.20929 14.6561 3.76431C14.4718 3.31934 14.2015 2.91505 13.8609 2.57455V2.57455Z" stroke="black" stroke-width="1.5" stroke-linecap="round" stroke-linejoin="round"/>
</svg>
