<svg width="16" height="14" viewBox="0 0 16 14" fill="none" xmlns="http://www.w3.org/2000/svg">
<path d="M13.8931 2.07455C13.5526 1.73389 13.1483 1.46365 12.7033 1.27927C12.2584 1.0949 11.7814 1 11.2998 1C10.8181 1 10.3412 1.0949 9.89619 1.27927C9.45121 1.46365 9.04693 1.73389 8.70642 2.07455L7.99976 2.78122L7.29309 2.07455C6.60529 1.38676 5.67244 1.00036 4.69975 1.00036C3.72707 1.00036 2.79422 1.38676 2.10642 2.07455C1.41863 2.76234 1.03223 3.69519 1.03223 4.66788C1.03223 5.64057 1.41863 6.57342 2.10642 7.26121L2.81309 7.96788L7.99976 13.1545L13.1864 7.96788L13.8931 7.26121C14.2338 6.92071 14.504 6.51642 14.6884 6.07145C14.8727 5.62648 14.9676 5.14954 14.9676 4.66788C14.9676 4.18622 14.8727 3.70928 14.6884 3.26431C14.504 2.81934 14.2338 2.41505 13.8931 2.07455V2.07455Z" stroke="black" stroke-width="1.5" stroke-linecap="round" stroke-linejoin="round"/>
</svg>
