<svg width="25" height="21" viewBox="0 0 25 21" fill="none" xmlns="http://www.w3.org/2000/svg">
<path d="M8.00033 15.2227L7.45445 15.8595C7.04587 16.3362 7.17247 17.0671 7.71757 17.3785L9.07362 18.1534C9.4842 18.388 10.003 18.303 10.3172 17.9495L11.5559 16.556" stroke="#1F1F1F" stroke-width="1.5"/>
<path d="M21 1L21 20" stroke="#1F1F1F" stroke-width="1.5"/>
<path d="M20.4482 2.18904L4.7015 7.11393C4.28414 7.24447 4 7.63105 4 8.06834V12.9317C4 13.369 4.28414 13.7555 4.7015 13.8861L20.4482 18.811C20.7021 18.8904 20.875 19.1256 20.875 19.3916C20.875 19.7276 21.1474 20 21.4834 20H23C23.5523 20 24 19.5523 24 19V2C24 1.44772 23.5523 1 23 1H21.4834C21.1474 1 20.875 1.27238 20.875 1.60839C20.875 1.87443 20.7021 2.10962 20.4482 2.18904Z" stroke="#1F1F1F" stroke-width="1.5"/>
<mask id="path-4-inside-1_115_3305" fill="white">
<rect y="7" width="3" height="7" rx="1"/>
</mask>
<rect y="7" width="3" height="7" rx="1" stroke="#1F1F1F" stroke-width="3" mask="url(#path-4-inside-1_115_3305)"/>
</svg>
