<svg width="24" height="24" viewBox="0 0 24 24" fill="none" xmlns="http://www.w3.org/2000/svg">
<path d="M16 21V19.6667C16 18.9594 15.6839 18.2811 15.1213 17.781C14.5587 17.281 13.7956 17 13 17H7C6.20435 17 5.44129 17.281 4.87868 17.781C4.31607 18.2811 4 18.9594 4 19.6667V21" fill="#F5F5F5"/>
<path d="M16 21V19.6667C16 18.9594 15.6839 18.2811 15.1213 17.781C14.5587 17.281 13.7956 17 13 17H7C6.20435 17 5.44129 17.281 4.87868 17.781C4.31607 18.2811 4 18.9594 4 19.6667V21" stroke="#1F1F1F" stroke-width="2" stroke-linecap="round" stroke-linejoin="round"/>
<path d="M15 14H22C22.5523 14 23 13.5523 23 13V3C23 2.44772 22.5523 2 22 2H9C8.44772 2 8 2.44772 8 3V5.5" stroke="#1F1F1F" stroke-width="2" stroke-linecap="round"/>
<path d="M10 14C11.6569 14 13 12.6569 13 11C13 9.34315 11.6569 8 10 8C8.34315 8 7 9.34315 7 11C7 12.6569 8.34315 14 10 14Z" fill="#F5F5F5" stroke="#1F1F1F" stroke-width="2" stroke-linecap="round" stroke-linejoin="round"/>
</svg>
