<svg width="52" height="30" viewBox="0 0 52 30" fill="none" xmlns="http://www.w3.org/2000/svg">
<path d="M23 26.25V23.75C23 22.4239 22.4732 21.1521 21.5355 20.2145C20.5978 19.2768 19.3261 18.75 18 18.75H8C6.67392 18.75 5.40215 19.2768 4.46447 20.2145C3.52678 21.1521 3 22.4239 3 23.75V26.25" stroke="#696969" stroke-width="2.5" stroke-linecap="round" stroke-linejoin="round"/>
<path d="M13 13.75C15.7614 13.75 18 11.5114 18 8.75C18 5.98858 15.7614 3.75 13 3.75C10.2386 3.75 8 5.98858 8 8.75C8 11.5114 10.2386 13.75 13 13.75Z" stroke="#696969" stroke-width="2.5" stroke-linecap="round" stroke-linejoin="round"/>
<path d="M35 11L42.5 18.5L50 11" stroke="#696969" stroke-width="2.5" stroke-linecap="round" stroke-linejoin="round"/>
</svg>
