<svg width="22" height="22" viewBox="0 0 22 22" fill="none" xmlns="http://www.w3.org/2000/svg">
<g clip-path="url(#clip0_115_5120)">
<path d="M8.25065 20.1654C8.75691 20.1654 9.16732 19.755 9.16732 19.2487C9.16732 18.7424 8.75691 18.332 8.25065 18.332C7.74439 18.332 7.33398 18.7424 7.33398 19.2487C7.33398 19.755 7.74439 20.1654 8.25065 20.1654Z" stroke="#1F1F1F" stroke-width="2" stroke-linecap="round" stroke-linejoin="round"/>
<path d="M18.3327 20.1654C18.8389 20.1654 19.2493 19.755 19.2493 19.2487C19.2493 18.7424 18.8389 18.332 18.3327 18.332C17.8264 18.332 17.416 18.7424 17.416 19.2487C17.416 19.755 17.8264 20.1654 18.3327 20.1654Z" stroke="#1F1F1F" stroke-width="2" stroke-linecap="round" stroke-linejoin="round"/>
<path d="M0.916016 0.917969H4.58268L7.03935 13.1921C7.12317 13.6142 7.35277 13.9933 7.68793 14.2631C8.0231 14.5329 8.44249 14.6762 8.87268 14.668H17.7827C18.2129 14.6762 18.6323 14.5329 18.9674 14.2631C19.3026 13.9933 19.5322 13.6142 19.616 13.1921L21.0827 5.5013H5.49935" stroke="#1F1F1F" stroke-width="2" stroke-linecap="round" stroke-linejoin="round"/>
</g>
<defs>
<clipPath id="clip0_115_5120">
<rect width="22" height="22" fill="white"/>
</clipPath>
</defs>
</svg>
